<svg xmlns="http://www.w3.org/2000/svg" viewBox="0 0 179.19 160.6"><defs><style>.cls-1{fill:#92cf4c;}</style></defs><g id="Layer_2" data-name="Layer 2"><g id="OBJECTS"><path class="cls-1" d="M134,108.28c-3.89-.76-6.67-1.21-6.67-1.21L134,109.9l9.21,3.91,1.77.3a38,38,0,0,0-9.74,2l-1.24.46-1.45.61c-2,.85-4.15,1.94-6.46,3.21-6,3.26-12.77,7.62-18.88,11.75s-11.72,8.16-14.85,10.45l-.61-8.53-1.22-16.88-.13-1.81,1.88-.59c1.57-.49,3.73-1.15,6.23-1.89s5.63-1.61,8.7-2.42c7.14-1.88,14.67-3.54,18.88-3.5a11.71,11.71,0,0,1,1.24.06,6,6,0,0,0-1.24-.49c-1.89-.57-6.06-1.3-13.5-.17-1.78.27-3.59.64-5.38,1.07-3.07.73-6.07,1.64-8.7,2.52-3.92,1.31-7,2.56-8.28,3.08H89c-1.38-.57-4.92-2-9.34-3.44-2.68-.86-5.67-1.73-8.7-2.41-1.44-.32-2.89-.6-4.31-.82-9.53-1.45-13.7.16-14.57.57l-.18.09h.18a12,12,0,0,1,1.39-.06c4,0,10.86,1.52,17.49,3.23,3,.78,6,1.62,8.7,2.39,4.25,1.24,7.69,2.32,9.17,2.79l-.13,1.81L87.46,134.1l-.61,8.48c-3.31-2.49-9.27-6.89-15.92-11.47-6.21-4.26-13-8.68-18.88-11.87-1.38-.75-2.71-1.43-4-2s-2.29-1-3.33-1.44l-.79-.29a35.64,35.64,0,0,0-7.74-1.77l8.53-3.63,7.12-3s-3,.49-7.12,1.3c-8.51,1.68-21.81,4.78-23.48,7.92l30.78,14.65,18.21,8.67,19.34,9.2,19.33-9.2,17.15-8.16,31.85-15.16C156.23,113.09,142.47,109.94,134,108.28ZM89.6,144.66Z"/><path class="cls-1" d="M89.37,37.27s41.91,5.8,51.27,17c0,0,1.67-18.27-17.83-29.6C99.08,10.89,89.37,0,89.37,0s-9.7,10.89-33.43,24.69C36.43,36,38.11,54.29,38.11,54.29,47.14,43.46,89.37,37.27,89.37,37.27Z"/><path class="cls-1" d="M129.61,100.08c.94.16,2.48.43,4.38.79V60.49c0-8.87-44.62-16.05-44.62-16.05S44.75,51.62,44.75,60.49V101c2.11-.4,3.82-.71,4.84-.88a21.28,21.28,0,0,1,2.46-.75V70.59l0,0a7.47,7.47,0,0,1,3.29-6.38,28,28,0,0,0,6.18-5.31,28.08,28.08,0,0,0,6.17,5.31A7.46,7.46,0,0,1,71,70.63s0,0,0,0,0,0,0,0V99.79c3,.6,5.95,1.39,8.7,2.21V65.08l0,0a7.45,7.45,0,0,1,3.3-6.37,27.92,27.92,0,0,0,6.17-5.32,28.18,28.18,0,0,0,6.18,5.32,7.45,7.45,0,0,1,3.29,6.37l0,0v37.25c2.72-.85,5.69-1.66,8.7-2.31V70.59l0,0a7.47,7.47,0,0,1,3.29-6.38,28,28,0,0,0,6.18-5.31,28.08,28.08,0,0,0,6.17,5.31,7.46,7.46,0,0,1,3.3,6.38l0,0s0,0,0,0V99.11A20.9,20.9,0,0,1,129.61,100.08Z"/><path class="cls-1" d="M155.1,65.71s8.86,1.23,10.84,3.6c0,0,.35-5.4-3.77-7.8a30.64,30.64,0,0,1-7.07-5.22A30.64,30.64,0,0,1,148,61.51c-4.12,2.4-3.77,7.8-3.77,7.8C146.17,67,155.1,65.71,155.1,65.71Z"/><path class="cls-1" d="M145.67,75v28.36c8,2,13.74,4,17.07,7h1.79V75c0-1.88-9.43-3.4-9.43-3.4S145.67,73.15,145.67,75Z"/><path class="cls-1" d="M24.09,65.71S33,67,34.93,69.31c0,0,.35-5.4-3.77-7.8a30.64,30.64,0,0,1-7.07-5.22A30.64,30.64,0,0,1,17,61.51c-4.12,2.4-3.76,7.8-3.76,7.8C15.23,66.94,24.09,65.71,24.09,65.71Z"/><path class="cls-1" d="M14.66,75v35.4h1.79c3.33-3.07,9-5.06,17.07-7V75c0-1.88-9.43-3.4-9.43-3.4S14.66,73.15,14.66,75Z"/><path class="cls-1" d="M126.93,140.65,89.6,156.32,52.27,140.65,0,118.71H0a21.46,21.46,0,0,0,14.57,17.34l75,24.55,75-24.55a21.45,21.45,0,0,0,14.56-17.34Z"/></g></g></svg>